<?xml version="1.0" encoding="utf-8"?>
<svg viewBox="104.791 204.79 203.593 98.204" xmlns="http://www.w3.org/2000/svg">
  <g id="Group_3950" data-name="Group 3950" transform="matrix(1, 0, 0, 1, 43.58679, 184.811117)">
    <g id="logo_white" data-name="logo white" transform="translate(65 23)">
      <path id="Path_1103" data-name="Path 1103" d="M305.054,323.3a15.538,15.538,0,0,0-3.577,2.223c-1.4.945-2.845,1.812-4.318,2.628a29.616,29.616,0,0,1-6.375,2.7c-.056-.375-.11-.742-.165-1.109a35.352,35.352,0,0,0-3.72-11.686c-1.4-2.742-3.922-6.457-7.233-7.062a5.653,5.653,0,0,0-3.318.591,9.2,9.2,0,0,0-1.681,1.272c-1.219.886-1.556,2.082-1.973,3.507-.221.789-.576,3.513.587,3.829a5.177,5.177,0,0,0,3.024-.092c.879-.258,1.8-.312,2.7-.5a8.868,8.868,0,0,1,3.89.111c.21.056.421.131.62.2a.376.376,0,0,1,.047.017c.059.25.117.483.133.59.127.651.285,1.3.406,1.953s.231,1.341.328,2.014c.032.226.062.455.1.685.017.146.077.59.085.7a46.741,46.741,0,0,0,1.346,8.591,12.978,12.978,0,0,0,2.433,4.473c.326.381,1.811,4.49,2.545,3.857,1.024-.89,2.239-3.949,3.3-4.8a39.393,39.393,0,0,0,3.824-3.47,43.98,43.98,0,0,0,7.039-8.788C305.234,325.464,305.91,323.035,305.054,323.3Z" transform="translate(-151.479 -282.32)" fill-rule="evenodd" style="fill: rgb(65, 62, 62);"/>
      <path id="Path_1104" data-name="Path 1104" d="M289.135,330.5a14.546,14.546,0,0,0-1.948-.543c-.661-.119-1.536.284-2.229.25a6.282,6.282,0,0,0-2.114.375c-1.232.449-2.56.981-3.892,1.509.8-1.06,1.332-2.122,2.174-3.108.372-.471.757-.934,1.142-1.388,1.171-1.37,2.42-2.669,3.7-3.9.184-.182.985-1.957.427-1.773a25.892,25.892,0,0,0-7.222,3.74c-.589.425-1.191.873-1.765,1.348-.6.484-1.182.993-1.75,1.546-4.115,3.268-6.506,10.7-2.8,13.346,2.918,1.853,7.424-2.123,11.682-3.291.607-.26,1.2-.536,1.8-.84.511-.255.77-.807,1.278-1.126.8-.492.957-1.11,1.5-1.86C289.644,334.063,290.383,330.909,289.135,330.5Z" transform="translate(-151.479 -282.32)" fill-rule="evenodd" style="fill: rgb(65, 62, 62);"/>
      <path id="Path_1105" data-name="Path 1105" d="M320.827,323.331c-.148-.6-.99-3.821-2.17-3.4a11.231,11.231,0,0,0-5.6,4.326c-.818,1.212-1.384,2.467-2.08,3.743-.307.56-.594,1.134-.881,1.711a30.329,30.329,0,0,0-1.035,4.121c-.063.193-.328,3.181-.035,3.181h-.449c-.047,0-.233-.886-.366-.9-.042-.072-.07-.57-.117-.645s-.127-.471-.2-.615c-.222-.5-.428-1.109-.616-1.619-.125-.314-.238-.7-.342-1.018-.031-.1-.254-.871-.285-.959-1.56-5.873-1.325-11.879-.623-17.85.026-.247.066-.5.1-.755.059-.2.121-.4.173-.6,1.182-3.963,2.474-7.892,3.58-11.879.512-1.88.971-3.787,1.453-5.685.09-.348.17-.7.247-1.045.129-.275.257-.555.381-.826a5.355,5.355,0,0,0,1.068-2.633c.365-1.576-.581-3.689-1.286-5.031-.193-.373-1.86-3.254-2.7-2.5a28.5,28.5,0,0,0-5.23,7.19,44.885,44.885,0,0,0-3.715,8.761,55.09,55.09,0,0,0-2.617,19.416,35.494,35.494,0,0,0,4.783,16.453,9.465,9.465,0,0,0,1.631,3.613c.186.233.4.049.594-.324.1.133.205.271.3.4,2.36,2.985,5.656,6.327,9.643,6.817,2.252.275,4.07-1.377,5.16-3.123a16.54,16.54,0,0,0,2-6.994A30.366,30.366,0,0,0,320.827,323.331Zm-9.354,12.42a5.608,5.608,0,0,1-1.564.615,2.4,2.4,0,0,0,1.043-.668c.447-.576.9-1.162,1.363-1.725a27.079,27.079,0,0,1,2.963-2.762,21.109,21.109,0,0,1,2.921-2.244c-.122.209-.241.414-.37.624A16.741,16.741,0,0,1,311.473,335.751Z" transform="translate(-151.479 -282.32)" fill-rule="evenodd" style="fill: rgb(65, 62, 62);"/>
      <path id="Path_1106" data-name="Path 1106" d="M337.309,325.6c-.1-.1-.208-.213-.308-.32.039.017.085.033.13.05.858.344,1.015-.974,1.024-1.474a9.555,9.555,0,0,0-1.379-4.924,4.07,4.07,0,0,0-3.713-2.2.692.692,0,0,0-.823.462,15.484,15.484,0,0,0-1.618,4.556c-.348.118-.68.246-1.012.371-2.088.814-4.168,1.67-6.229,2.535-1.933.812-3.875,1.6-5.761,2.492-2.119,1-4.534,1.947-6.288,3.535-.171.159-1.07,1.846-.529,1.883,1.847.125,3.781-.907,5.484-1.523,2.13-.768,4.207-1.649,6.3-2.477s4.188-1.621,6.3-2.4l1.306-.475c-.046,1.244-.021,2.486.03,3.7.051.963.129,1.926.225,2.883a9.534,9.534,0,0,0,.559,2.811c.079.2.117.308.137.353.038.192.081.373.118.557.554,2.631,1.25,7.064,1.912,9.676.433,1.729,1,6.873,1.442,8.607.1.383.33,1.412.9,1.4,1.07-.029,1.07-6.515.875-7.107.7.213,1,.051.9-.473.013-.251.036-.5.044-.753a15.315,15.315,0,0,0-.132-2.016,30.631,30.631,0,0,1-.116-4.743,15.491,15.491,0,0,0-.277-3.574c-.413-3.9-.477-8.005,1.033-11.7C337.668,325.41,337.494,325.508,337.309,325.6Z" transform="translate(-151.479 -282.32)" fill-rule="evenodd" style="fill: rgb(65, 62, 62);"/>
      <path id="Path_1107" data-name="Path 1107" d="M346.995,293.477a6.187,6.187,0,0,1-3.532,2.762c-1.507.379-2.986.847-4.5,1.188a23.333,23.333,0,0,0-4.281,1.284,16.181,16.181,0,0,0-1.984,1.049c-.421.254-.454.858-.483,1.334a16,16,0,0,0,.966,5.262c.385,1.4,1.249,3.551,2.9,3.117.731-.189,1.041-.863,1.54-1.465,1.014-1.218,2.185-2.313,3.249-3.474a42.864,42.864,0,0,0,6.262-9.315C347.325,294.839,347.711,292.426,346.995,293.477Z" transform="translate(-151.479 -282.32)" fill-rule="evenodd" style="fill: rgb(65, 62, 62);"/>
      <path id="Path_1108" data-name="Path 1108" d="M266.435,323.641c-3.234-1.289-6.428,1.369-8.361,3.746q-1.83,2.264-3.676,4.518c-1.025-2.852-2.05-5.7-3.16-8.521-.369-.932-1.173-3.614-2.649-3.491-1.529.125-2.015,3.369-2.267,4.465s.682.019.818-.434c.174-.553.854-.2,1.242.45a18.723,18.723,0,0,1,1.063,2.166c.168.373.3.765.447,1.148-.669-1.732.707,3.037.3,1.437.068.235.129.466.191.7,1.088,4.189,1.6,8.654,4.692,11.974.381.4,1.881,2.077,2.652,1.428a48.161,48.161,0,0,0,5.815-6.441,39.505,39.505,0,0,0,2.611-3.5,5.454,5.454,0,0,0,.607-2.034,27.117,27.117,0,0,0,.479-4.856C267.259,325.814,267.156,323.93,266.435,323.641Z" transform="translate(-151.479 -282.32)" fill-rule="evenodd" style="fill: rgb(65, 62, 62);"/>
      <path id="Path_1109" data-name="Path 1109" d="M269.681,330.045a36,36,0,0,0-1.891-9.557c-.188-.64-.927-3.338-2.078-3.038a.881.881,0,0,0-.605.791c-.022-.114-.047-.221-.068-.334a5.347,5.347,0,0,0-1.112,3.014c-.159,1.064-.386,2.089-.465,3.154-.152,2.033-.42,4.068-.679,6.092-.477,3.724-.727,7.489-1.147,11.228s-1.014,7.513-1.188,11.275c-.083,1.875-.15,3.747-.191,5.623-.013.862.206,1.791.266,2.661a10.573,10.573,0,0,0,.179,1.707c.252,1.033.747,1.981.914,3.041.364,2.392.507,4.884,1.036,7.244.107.484.658,1.836,1.221.871a3.2,3.2,0,0,0,.345-1.159c.037.194.118.23.307-.189a17,17,0,0,1,1.342-3.156,2.913,2.913,0,0,0,.688-1.3c.081-.451.163-.91.251-1.357.2-1.086.5-2.1.618-3.2.226-1.967.506-3.925.659-5.892.6-7.677,1.6-15.372,1.634-23.077C269.726,333.012,269.713,331.523,269.681,330.045Z" transform="translate(-151.479 -282.32)" fill-rule="evenodd" style="fill: rgb(65, 62, 62);"/>
      <path id="Path_1110" data-name="Path 1110" d="M241.842,345.542a53.794,53.794,0,0,0-.468-6.43,39.1,39.1,0,0,1-.2-5.754,13.462,13.462,0,0,1,1.09-5.026c-1.012-.587-2.01-1.173-3.022-1.759a2.056,2.056,0,0,0,.108-.414c-.137.866-.574-8.027-3.59-6.614a1.9,1.9,0,0,0-.968.787,10.551,10.551,0,0,0-1,3.3,33.439,33.439,0,0,0-.351,7.592,31.316,31.316,0,0,0,1.594,8.487c.353,1.06.562,1.707.65,1.943.04.178.1.351.139.533.707,2.668,1.838,5.182,2.536,7.854.506,1.928.882,3.9,1.21,5.87a2.911,2.911,0,0,0,.281.926c.048.079.758.538.678.29.268.816.78-5.158,1.275-6.311a4.4,4.4,0,0,0,.147-2.331A20.343,20.343,0,0,1,241.842,345.542Z" transform="translate(-151.479 -282.32)" fill-rule="evenodd" style="fill: rgb(65, 62, 62);"/>
      <path id="Path_1111" data-name="Path 1111" d="M247.292,321.4c-.013-.007-.031-.011-.045-.019-.181-.053-.333.18-.412.294-2.369,3.152-6,5.157-8.177,8.431-.089.142-.742,1.818-.248,1.809a3.839,3.839,0,0,0,2.558-1.293,26.417,26.417,0,0,0,2.99-3.131,37.9,37.9,0,0,0,2.225-3.129,6.655,6.655,0,0,0,1.164-2.751C247.347,321.567,247.371,321.423,247.292,321.4Z" transform="translate(-151.479 -282.32)" fill-rule="evenodd" style="fill: rgb(65, 62, 62);"/>
      <path id="Path_1112" data-name="Path 1112" d="M252.471,293.668c-1.223.756-2.311,1.652-3.587,2.354-1.828,1.015-3.824,1.641-5.713,2.527a53.275,53.275,0,0,0-6.418,3.033,15.341,15.341,0,0,1-2.21,1.168c-.711.311-1.462.3-1.983.618-1.168.708-.053,3.265.3,4.089a13.4,13.4,0,0,0,2.049,3.34,7.346,7.346,0,0,0,1.059,1.067q-2.449-1.11-.951-.18a4.733,4.733,0,0,0,.844.326c.236.078.44.137.654.195a1.463,1.463,0,0,0,.446.119c-.032-.021-.071-.033-.108-.054a3.7,3.7,0,0,0,1.281,0,7.512,7.512,0,0,0,2.116-.768,15.615,15.615,0,0,0,2.276-1.513,7.169,7.169,0,0,0,1.526-2.418c2.3-4.162,4.053-9.223,8.12-12.031C252.582,295.258,253.117,293.276,252.471,293.668Z" transform="translate(-151.479 -282.32)" fill-rule="evenodd" style="fill: rgb(65, 62, 62);"/>
      <path id="Path_1113" data-name="Path 1113" d="M228.525,334.7c-.418-4.958-.7-10.085-1.937-14.927-.8-3.119-1.483-6.2-2.381-9.287-.84-2.885-1.725-5.791-2.748-8.615-.264-.754-.76-3.2-1.832-3.373-.324-.057-.231.261-.492.285a1.078,1.078,0,0,0-.446.119c-.465.258-1.332,2.814-.559,2.853.434.014.724.582.94,1.157v.343a7.6,7.6,0,0,0-.141.866,18.61,18.61,0,0,0-.113,2.451c-.08,1.244-.119,2.476-.137,3.73q-.041,3.559-.094,7.131c-.037,4.748.288,9.5.433,14.256.052,2.064.225,4.117.374,6.174a26.33,26.33,0,0,0,.76,5.728,15.551,15.551,0,0,1,.321,2.022c.414,2.683,2,4.807,2.958,7.316.2.522,1.83,4.257,2.951,3.479-.357.238.041-.031.12-.085a5.921,5.921,0,0,0,.972-.823,3.683,3.683,0,0,0,1.295-2.62c.108-1.908.473-3.737.428-5.644C229.092,343.036,228.877,338.881,228.525,334.7Z" transform="translate(-151.479 -282.32)" fill-rule="evenodd" style="fill: rgb(65, 62, 62);"/>
      <path id="Path_1114" data-name="Path 1114" d="M229.861,297.208a11.521,11.521,0,0,1-2.078-.245,3.929,3.929,0,0,0-2.127.736,17.969,17.969,0,0,0-3.868,3.061c-2.1,2.078-3.712,4.553-5.583,6.809-4.16,5.01-8.962,9.6-12.706,14.912a32.1,32.1,0,0,0-4.4,8.248,8.638,8.638,0,0,0,.362,6.348,48.553,48.553,0,0,1,2.1,6.132,6.066,6.066,0,0,0,.738,1.877c1.026,1.365,1.436-1.386,1.442-1.9.039-2.712.108,2.472.978.913a3.007,3.007,0,0,1,1.063-1.156,4.911,4.911,0,0,0,1.167-2.2c.608-1.448,1.092-2.932,1.705-4.381a42.481,42.481,0,0,1,4.651-7.672c3.19-4.514,6.865-8.67,9.743-13.383a46.667,46.667,0,0,0,2.99-6.426c.465-1.131,1.029-2.2,1.593-3.283a11.318,11.318,0,0,1,1.018-1.582,4.069,4.069,0,0,0,.512-.915c.152-.39.186-1.246.523-1.511C230.3,301.094,231.1,297.063,229.861,297.208Z" transform="translate(-151.479 -282.32)" fill-rule="evenodd" style="fill: rgb(65, 62, 62);"/>
      <path id="Path_1115" data-name="Path 1115" d="M204.832,335.528a30.249,30.249,0,0,1-2.364-1.951c-.156-.139-.3-.278-.455-.416-.034-.034-.223-.241-.281-.29-.033-.037-.059-.074-.092-.114-.033-.131-.08-.288-.138-.485-.061-.22-.272-1.022.021.055-.146-.545-.275-1.094-.387-1.643-.05-.189-.223-1.164-.223-1.138-.035-.179-.063-.356-.1-.532-.042-.32-.329-1.733-.141-.781q-.363-1.875-.655-3.76c-.365-2.342-.6-4.7-1-7.023a131.137,131.137,0,0,0-2.619-13.356c-.359-1.244-.75-2.476-1.191-3.682-.259-.693-.559-1.364-.848-2.038A29.8,29.8,0,0,0,192.8,295.6a11.038,11.038,0,0,0-1.168-1.855c-.937-1.055-1.126.857-1.1,1.513a9.43,9.43,0,0,0,.484,2.481c.1.244.182.488.273.732.688,1.293.364.84-.954-1.36-.012-.036-.021-.068-.036-.1.008.031.017.063.028.1l0-.007a.112.112,0,0,1,.012.035c.033.143.074.284.111.428.125.457.224.922.328,1.385.012.077.056.314.088.476.05.3.1.59.14.885.126.8.245,1.6.37,2.4.257,1.655.474,3.321.687,4.984.452,3.47.947,6.891,1.643,10.325a60.355,60.355,0,0,0,3.916,12.955,33.714,33.714,0,0,0,4.514,7.826c.8.936,1.509,1.711,2.682,1.328C205.887,339.77,205.675,336.127,204.832,335.528Z" transform="translate(-151.479 -282.32)" fill-rule="evenodd" style="fill: rgb(65, 62, 62);"/>
      <path id="Path_1116" data-name="Path 1116" d="M200.611,294.2c-.021-.553-.433-4.02-1.641-3.713a5.491,5.491,0,0,0-3.332,2.32,17.1,17.1,0,0,1-2.251,2.828,14.358,14.358,0,0,0-1.855,2.934c-.665,1.115-1.368,2.209-1.989,3.349-2.213,4.159-4.541,8.254-6.931,12.319-2.294,3.918-4.562,7.846-6.9,11.74-2.2,3.68-4.622,7.262-6.586,11.059a1.525,1.525,0,0,1-.67.441c-.392.092-.774.207-1.158.318-.961.284-1.9.633-2.838.977a41.086,41.086,0,0,0-6.346,2.844,14.845,14.845,0,0,0-5.039,4.426,10.087,10.087,0,0,0-1.3,7.855c.167.625.557.784.922.139a3.781,3.781,0,0,0,.455-1.592c.064-.092.117-.183.179-.273a4.286,4.286,0,0,1,.682-.731,10.14,10.14,0,0,1,2.449-1.666,39.7,39.7,0,0,1,6.6-2.627,48.373,48.373,0,0,1,7.278-1.522,18.623,18.623,0,0,1,3.573-.169c.622.031,1.243.05,1.856.021.91-.051,1.889-1.846,2.326-2.527,4.262-6.571,8.47-13.2,12.224-20.049q2.928-5.337,5.69-10.75c.836-1.633,1.672-3.256,2.366-4.943.331-.825.667-1.645.99-2.47.39-.987.295-1.954.586-2.933.271-.9.574-1.793.781-2.7C201.077,297.582,200.685,295.7,200.611,294.2Z" transform="translate(-151.479 -282.32)" fill-rule="evenodd" style="fill: rgb(65, 62, 62);"/>
    </g>
  </g>
</svg>